<?xml version="1.0" encoding="UTF-8"?>
<svg width="152px" height="40px" viewBox="0 0 152 40" version="1.1" xmlns="http://www.w3.org/2000/svg" xmlns:xlink="http://www.w3.org/1999/xlink">
    <title>Download_on_the_App_Store_Badge_TR_RGB_blk_100217</title>
    <g id="Page-1" stroke="none" stroke-width="1" fill="none" fill-rule="evenodd">
        <g id="Download_on_the_App_Store_Badge_TR_RGB_blk_100217" transform="translate(0, 0)" fill-rule="nonzero">
            <g id="Group">
                <path d="M141.76087,8.79504802e-16 L9.53468,8.79504802e-16 C9.16798,8.79504802e-16 8.80568,8.79504802e-16 8.43995,0.00209 C8.1338,0.00409 7.83009,0.0099 7.521,0.01479 C6.84951368,0.0226918036 6.17960647,0.0817662599 5.5171,0.1915 C4.85552408,0.303622628 4.21467252,0.51500574 3.61622,0.8185 C3.01849941,1.12456171 2.47234502,1.52225753 1.99757,1.99716 C1.5203025,2.47072699 1.12246318,3.01810638 0.81935,3.61825 C0.515400242,4.21719912 0.304640498,4.8590283 0.19435,5.52157 C0.0830109412,6.18327491 0.0230983806,6.85261054 0.01515,7.52357 C0.00587,7.83017 0.00489,8.13779 0,8.44443 L0,31.55869 C0.00489,31.86919 0.00587,32.16999 0.01515,32.48059 C0.023100818,33.1515162 0.0830133796,33.8208184 0.19435,34.48249 C0.304335953,35.145419 0.515108158,35.7876166 0.81935,36.38679 C1.12232555,36.9849929 1.52022081,37.5301562 1.99757,38.00109 C2.47054482,38.478104 3.01705224,38.8760704 3.61622,39.17979 C4.21466797,39.4840965 4.85545044,39.6967378 5.5171,39.81059 C6.1797191,39.9194447 6.84955741,39.9785432 7.521,39.98739 C7.83009,39.99419 8.1338,39.99809 8.43995,39.99809 C8.80567,40.00009 9.168,40.00009 9.53468,40.00009 L141.76087,40.00009 C142.12027,40.00009 142.48547,40.00009 142.84487,39.99809 C143.14957,39.99809 143.46207,39.99419 143.76677,39.98739 C144.436943,39.9790137 145.10552,39.9199115 145.76677,39.81059 C146.430554,39.6959364 147.073634,39.4833514 147.67497,39.17979 C148.273597,38.8758946 148.8196,38.4779391 149.29217,38.00109 C149.768288,37.5283118 150.167032,36.9835473 150.47377,36.38679 C150.775729,35.7871808 150.984495,35.1450345 151.09287,34.48249 C151.204385,33.8207276 151.266423,33.1515743 151.27847,32.48059 C151.28237,32.16999 151.28237,31.86919 151.28237,31.55869 C151.29017,31.19539 151.29017,30.83409 151.29017,30.46489 L151.29017,9.53622 C151.29017,9.17001 151.29017,8.80673 151.28237,8.44443 C151.28237,8.13779 151.28237,7.83017 151.27847,7.52353 C151.266426,6.85251244 151.204387,6.18332567 151.09287,5.52153 C150.984193,4.8593716 150.775439,4.21759328 150.47377,3.61821 C149.856495,2.41530546 148.877686,1.43614997 147.675,0.81845 C147.073662,0.51569738 146.430513,0.30437041 145.7668,0.19145 C145.105665,0.0812327831 144.437018,0.0221377649 143.7668,0.01469 C143.4621,0.00981 143.1496,0.00395 142.8449,0.002 C142.4855,8.79504802e-16 142.1203,8.79504802e-16 141.7609,8.79504802e-16 L141.76087,8.79504802e-16 Z" id="Path" fill="#A6A6A6"></path>
                <path d="M8.44483,39.12509 C8.14015,39.12509 7.84283,39.12119 7.54054,39.11439 C6.91432177,39.1062307 6.28956717,39.051715 5.6714,38.95129 C5.0949903,38.8520182 4.53660424,38.6673545 4.01466,38.40339 C3.4975017,38.1416127 3.02581177,37.7983629 2.61766,37.38679 C2.20360033,36.9800653 1.85887673,36.508334 1.59715,35.99029 C1.33253926,35.4688791 1.14941288,34.9099896 1.05415,34.33309 C0.951274358,33.7132049 0.895614374,33.0864032 0.88765,32.45809 C0.88131,32.24719 0.87301,31.54499 0.87301,31.54499 L0.87301,8.44443 C0.87301,8.44443 0.88185,7.75302 0.8877,7.54989 C0.895325827,6.92257205 0.950662148,6.2967431 1.05323,5.67782 C1.14866872,5.09934008 1.33193687,4.53883887 1.59669,4.01572 C1.85745482,3.49803385 2.20026458,3.02595029 2.61183,2.61777 C3.02293283,2.20571142 3.49613161,1.86069412 4.01417,1.5953 C4.53491467,1.3321836 5.09224545,1.14882255 5.66749,1.05136 C6.28768733,0.949926139 6.91461084,0.895086084 7.543,0.8873 L8.44532,0.87509 L142.84,0.87509 L143.7531,0.88779 C144.375773,0.89518916 144.997002,0.949539968 145.6115,1.05038 C146.192568,1.14906507 146.755707,1.33370553 147.2824,1.59823 C148.320218,2.13307605 149.164672,2.97925295 149.6974,4.01816 C149.957927,4.53766756 150.138369,5.09359676 150.2326,5.66708 C150.336389,6.29108138 150.394477,6.92182834 150.4064,7.55429 C150.4093,7.83749 150.4093,8.14169 150.4093,8.44443 C150.4172,8.81943 150.4172,9.17636 150.4172,9.53622 L150.4172,30.46489 C150.4172,30.82819 150.4172,31.18269 150.4093,31.54009 C150.4093,31.86529 150.4093,32.16319 150.4054,32.46979 C150.393735,33.0909657 150.336616,33.7104542 150.2345,34.32329 C150.14119,34.9043512 149.95906,35.4676031 149.6945,35.99329 C149.430923,36.5057111 149.088179,36.9733562 148.6789,37.37899 C148.270381,37.7927746 147.797859,38.1380327 147.2795,38.40149 C146.754266,38.6674837 146.191956,38.8528303 145.6115,38.95129 C144.99338,39.052251 144.368565,39.1067702 143.7423,39.11439 C143.4494,39.12119 143.1427,39.12509 142.8449,39.12509 L141.7609,39.12709 L8.44483,39.12509 Z" id="Path" fill="#000000"></path>
            </g>
            <g id="_Group_" transform="translate(9.9716, 8.7204)" fill="#FFFFFF">
                <g id="_Group_2" transform="translate(0, 0)">
                    <path d="M14.7973126,11.58041 C14.8191696,9.88393912 15.7085555,8.31691611 17.1538726,7.42835 C16.2379452,6.12024277 14.7588246,5.32060835 13.1627126,5.27067 C11.4834726,5.09441 9.85552256,6.2755 8.99981256,6.2755 C8.12754256,6.2755 6.81004256,5.28817 5.39131256,5.31736 C3.52463382,5.37766842 1.82656973,6.41325548 0.91839256,8.04523 C-1.01560744,11.39365 0.42698256,16.3147 2.27959256,19.02131 C3.20649256,20.34666 4.28977256,21.82711 5.70722256,21.77461 C7.09428256,21.71708 7.61232256,20.89013 9.28662256,20.89013 C10.9453826,20.89013 11.4314126,21.77461 12.8776226,21.74123 C14.3660026,21.71707 15.3037526,20.40999 16.1981326,19.07209 C16.8641087,18.1277297 17.3765762,17.0840059 17.7165526,15.97958 C15.9488091,15.2319113 14.7993758,13.4997643 14.7973126,11.58041 L14.7973126,11.58041 Z" id="_Path_"></path>
                    <path d="M12.0656826,3.49062 C12.8772092,2.51641191 13.2770175,1.26423245 13.1802026,-1.77635684e-15 C11.9403704,0.130220487 10.7951128,0.722779675 9.97262256,1.65961 C9.16045128,2.58391903 8.74900719,3.79316268 8.82891256,5.021 C10.0853694,5.03393677 11.2783487,4.46988322 12.0656826,3.49062 L12.0656826,3.49062 Z" id="_Path_2"></path>
                </g>
            </g>
            <g id="Group" transform="translate(35.5799, 23.9403)" fill="#FFFFFF">
                <path d="M0.000169839202,0.542720842 C0.00654354557,0.238218008 0.257397327,-0.00410656912 0.561938458,5.27514232e-05 C0.866479589,0.00421207196 1.11062186,0.253297139 1.10867715,0.557860462 C1.10673243,0.862423786 0.859429252,1.10837085 0.554859839,1.10864706 C0.405570866,1.10934902 0.262355409,1.04958401 0.157854119,0.942967039 C0.0533528292,0.836350064 -0.00353004439,0.69196564 0.000169839202,0.542720842 L0.000169839202,0.542720842 Z M0.0909898392,7.63012084 L0.0909898392,1.66332084 L1.01774984,1.66332084 L1.01774984,7.63012084 L0.0909898392,7.63012084 Z" id="Shape"></path>
                <path d="M2.53336984,3.12719084 L3.38883984,3.12719084 L3.38883984,3.84203084 L3.45524984,3.84203084 C3.68642709,3.31562711 4.22595885,2.99371084 4.79899984,3.04027084 C5.24281664,3.00690261 5.6777257,3.17716074 5.98093061,3.50297291 C6.28413553,3.82878508 6.42273291,4.2747946 6.35758984,4.71507084 L6.35758984,7.63007084 L5.46891984,7.63007084 L5.46891984,4.93774084 C5.46891984,4.21411084 5.15446984,3.85474084 4.49723984,3.85474084 C4.19628266,3.84068408 3.90419211,3.95874733 3.69753209,4.17798339 C3.49087207,4.39721946 3.39024946,4.69576746 3.42203984,4.99537084 L3.42203984,7.63014084 L2.53336984,7.63014084 L2.53336984,3.12719084 Z" id="Path"></path>
                <path d="M7.50895984,5.37622084 C7.50895984,3.95337084 8.24040984,3.05200084 9.37809984,3.05200084 C9.95252674,3.02573755 10.4904746,3.3335014 10.7589598,3.84200084 L10.8253698,3.84200084 L10.8253698,1.36938084 L11.7140698,1.36938084 L11.7140698,7.63012084 L10.8624698,7.63012084 L10.8624698,6.91821084 L10.7921598,6.91821084 C10.5036089,7.42276188 9.95894676,7.72556036 9.37809984,7.70434084 C8.23258984,7.70434084 7.50895984,6.80297084 7.50895984,5.37622084 Z M8.42695984,5.37622084 C8.42695984,6.33130084 8.87715984,6.90649084 9.63008984,6.90649084 C10.3790898,6.90649084 10.8419998,6.32349084 10.8419998,5.38012084 C10.8419998,4.44164084 10.3742298,3.85082084 9.63008984,3.85082084 C8.88199984,3.85082084 8.42692984,4.42895084 8.42692984,5.37622084 L8.42695984,5.37622084 Z" id="Shape"></path>
                <path d="M13.0558298,1.79516084 C13.0420265,1.5596945 13.1732546,1.33962964 13.3869763,1.23983997 C13.6006979,1.1400503 13.8536698,1.18072675 14.0253361,1.34248463 C14.1970024,1.50424251 14.2526291,1.75435256 14.1657067,1.97362277 C14.0787843,2.19289299 13.8669003,2.33695737 13.6310298,2.33716084 C13.482026,2.34475759 13.3363782,2.29119966 13.2277926,2.18888144 C13.1192069,2.08656322 13.0570946,1.94435289 13.0558298,1.79516084 Z M13.1876698,3.12716084 L14.0734098,3.12716084 L14.0734098,7.63009084 L13.1876698,7.63009084 L13.1876698,3.12716084 Z" id="Shape"></path>
                <path d="M15.5069998,3.12719084 L16.3624698,3.12719084 L16.3624698,3.81762084 L16.4288798,3.81762084 C16.625281,3.32579208 17.1162915,3.01659545 17.6446998,3.05200084 C17.7777946,3.05045538 17.9106836,3.06289362 18.0411798,3.08911084 L18.0411798,3.96611084 C17.8780538,3.93150569 17.7118423,3.91351053 17.5450898,3.91240084 C17.2487021,3.8857844 16.9548564,3.98556897 16.7359652,4.18716456 C16.517074,4.38876015 16.3934943,4.67341842 16.3956798,4.97099084 L16.3956798,7.63017084 L15.5069998,7.63017084 L15.5069998,3.12719084 Z" id="Path"></path>
                <path d="M18.9737998,1.79516084 C18.9599965,1.5596945 19.0912246,1.33962964 19.3049463,1.23983997 C19.5186679,1.1400503 19.7716398,1.18072675 19.9433061,1.34248463 C20.1149724,1.50424251 20.1705991,1.75435256 20.0836767,1.97362277 C19.9967543,2.19289299 19.7848703,2.33695737 19.5489998,2.33716084 C19.399996,2.34475759 19.2543482,2.29119966 19.1457626,2.18888144 C19.0371769,2.08656322 18.9750646,1.94435289 18.9737998,1.79516084 Z M19.1056398,3.12716084 L19.9913798,3.12716084 L19.9913798,7.63009084 L19.1056398,7.63009084 L19.1056398,3.12716084 Z" id="Shape"></path>
                <path d="M21.4249698,3.12719084 L22.2804398,3.12719084 L22.2804398,3.84203084 L22.3468498,3.84203084 C22.5780271,3.31562711 23.1175589,2.99371084 23.6905998,3.04027084 C24.1344166,3.00690261 24.5693257,3.17716074 24.8725306,3.50297291 C25.1757355,3.82878508 25.3143329,4.2747946 25.2491898,4.71507084 L25.2491898,7.63007084 L24.3605198,7.63007084 L24.3605198,4.93774084 C24.3605198,4.21411084 24.0460698,3.85474084 23.3888398,3.85474084 C23.0878827,3.84068408 22.7957921,3.95874733 22.5891321,4.17798339 C22.3824721,4.39721946 22.2818495,4.69576746 22.3136398,4.99537084 L22.3136398,7.63014084 L21.4249698,7.63014084 L21.4249698,3.12719084 Z" id="Path"></path>
            </g>
            <g id="Group" transform="translate(34.4297, 8.2085)" fill="#FFFFFF">
                <path d="M7.875,9.2686 L3.1416,9.2686 L2.00488,12.62505 L0,12.62505 L4.4834,0.20705 L6.5664,0.20705 L11.0498,12.62505 L9.01074,12.62505 L7.875,9.2686 Z M3.63184,7.71977 L7.38384,7.71977 L5.53418,2.27255 L5.48242,2.27255 L3.63184,7.71977 Z" id="Shape"></path>
                <path d="M20.73242,8.09868 C20.73242,10.91216 19.22656,12.71977 16.9541,12.71977 C15.7794853,12.7812146 14.6730624,12.1659807 14.10547,11.13577 L14.06247,11.13577 L14.06247,15.62015 L12.20407,15.62015 L12.20407,3.57134 L14.0029,3.57134 L14.0029,5.0772 L14.03708,5.0772 C14.6298883,4.05344792 15.7375043,3.43847884 16.91989,3.47661 C19.21777,3.47661 20.73242,5.29301 20.73242,8.09868 Z M18.82229,8.09868 C18.82229,6.26568 17.87499,5.06059 16.42968,5.06059 C15.00976,5.06059 14.05468,6.29106 14.05468,8.09868 C14.05468,9.9229 15.00976,11.14458 16.42968,11.14458 C17.875,11.14458 18.82229,9.94829 18.82229,8.09868 L18.82229,8.09868 Z" id="Shape"></path>
                <path d="M30.69677,8.09868 C30.69677,10.91216 29.1914,12.71977 26.91894,12.71977 C25.7443226,12.7812263 24.6378911,12.1659997 24.07029,11.13579 L24.02729,11.13579 L24.02729,15.62017 L22.16889,15.62017 L22.16889,3.57134 L23.96772,3.57134 L23.96772,5.0772 L24.0019,5.0772 C24.5947083,4.05344792 25.7023243,3.43847884 26.88471,3.47661 C29.18261,3.47661 30.69677,5.29301 30.69677,8.09868 Z M28.78711,8.09868 C28.78711,6.26568 27.83983,5.06059 26.39452,5.06059 C24.9746,5.06059 24.01952,6.29106 24.01952,8.09868 C24.01952,9.9229 24.9746,11.14458 26.39452,11.14458 C27.83984,11.14458 28.78711,9.94829 28.78711,8.09868 L28.78711,8.09868 Z" id="Shape"></path>
                <path d="M37.28271,9.16509 C37.42041,10.39654 38.61671,11.20509 40.25146,11.20509 C41.81787,11.20509 42.94482,10.3965 42.94482,9.28614 C42.94482,8.32227 42.26513,7.74514 40.65576,7.34962 L39.04639,6.96192 C36.76612,6.41114 35.70752,5.34473 35.70752,3.61426 C35.70752,1.47168 37.57471,0 40.22607,0 C42.85007,0 44.64892,1.47168 44.70947,3.61426 L42.83347,3.61426 C42.72117,2.375 41.69675,1.62696 40.19968,1.62696 C38.70261,1.62696 37.6782,2.3838 37.6782,3.48536 C37.6782,4.36329 38.3325,4.87989 39.93308,5.27536 L41.30124,5.6113 C43.84909,6.21384 44.90769,7.2373 44.90769,9.05368 C44.90769,11.37692 43.0571,12.832 40.11374,12.832 C37.35983,12.832 35.50046,11.4111 35.38034,9.165 L37.28271,9.16509 Z" id="Path"></path>
                <path d="M48.91845,1.42876 L48.91845,3.57134 L50.64013,3.57134 L50.64013,5.04302 L48.91845,5.04302 L48.91845,10.03423 C48.91845,10.80962 49.26318,11.17095 50.02001,11.17095 C50.2244014,11.1673859 50.4284621,11.1530326 50.63134,11.12795 L50.63134,12.59084 C50.2910683,12.6544196 49.9452108,12.6832145 49.59911,12.67678 C47.76611,12.67678 47.05126,11.9883 47.05126,10.23244 L47.05126,5.04301 L45.73486,5.04301 L45.73486,3.57134 L47.05129,3.57134 L47.05129,1.42876 L48.91845,1.42876 Z" id="Path"></path>
                <path d="M51.6372,8.09868 C51.6372,5.25005 53.31493,3.46001 55.93115,3.46001 C58.55615,3.46001 60.22607,5.25001 60.22607,8.09868 C60.22607,10.95513 58.56494,12.73735 55.93115,12.73735 C53.29829,12.73735 51.6372,10.95512 51.6372,8.09868 Z M58.33252,8.09868 C58.33252,6.14458 57.437,4.99126 55.93114,4.99126 C54.42528,4.99126 53.53075,6.15337 53.53075,8.09868 C53.53075,10.06059 54.42528,11.20513 55.93114,11.20513 C57.437,11.20513 58.33252,10.06055 58.33252,8.09868 L58.33252,8.09868 Z" id="Shape"></path>
                <path d="M61.75829,3.57134 L63.53075,3.57134 L63.53075,5.11234 L63.57375,5.11234 C63.820926,4.12032841 64.7298826,3.43759156 65.75148,3.4766 C65.965644,3.47585223 66.1792172,3.49911075 66.3882,3.54594 L66.3882,5.28422 C66.117831,5.20160332 65.8357896,5.16367129 65.5532,5.17192 C65.0068482,5.14975544 64.4781009,5.36749473 64.1057915,5.76796597 C63.733482,6.16843722 63.5548066,6.71163074 63.61668,7.25492 L63.61668,12.62505 L61.75829,12.62505 L61.75829,3.57134 Z" id="Path"></path>
                <path d="M74.95654,9.96587 C74.70654,11.60942 73.10595,12.73735 71.0581,12.73735 C68.42431,12.73735 66.78955,10.9727 66.78955,8.14165 C66.78955,5.30181 68.4331,3.46001 70.97998,3.46001 C73.48486,3.46001 75.06006,5.18071 75.06006,7.92583 L75.06006,8.56255 L68.66553,8.56255 L68.66553,8.67485 C68.6058274,9.34888162 68.8385716,10.0160794 69.3045599,10.5067299 C69.7705483,10.9973804 70.4248675,11.2641933 71.10108,11.2393 C72.0029223,11.3237996 72.8531831,10.8059377 73.1919,9.96586 L74.95654,9.96587 Z M68.6742824,7.26372 L73.20066,7.26372 C73.2343855,6.65805749 73.0139165,6.06578308 72.5923701,5.62959155 C72.1708236,5.19340001 71.5864208,4.95284041 70.97996,4.96587 C70.3687035,4.96222225 69.781314,5.20289328 69.3483491,5.63438972 C68.9153842,6.06588617 68.6727189,6.65245465 68.6742824,7.26372 L68.6742824,7.26372 Z" id="Shape"></path>
                <polygon id="Path" points="76.3081 4.75102 77.32373 0.20707 79.13037 0.20707 77.8999 4.75102"></polygon>
                <path d="M79.04929,8.09868 C79.04929,5.30181 80.58929,3.47661 82.83542,3.47661 C84.0114294,3.41810705 85.1163307,4.04085129 85.67526,5.0772 L85.71042,5.0772 L85.71042,0.20708 L87.57761,0.20708 L87.57761,12.62508 L85.76999,12.62508 L85.76999,11.08508 L85.73581,11.08508 C85.1734597,12.1431899 84.0497308,12.7804287 82.853,12.71985 C80.58935,12.71977 79.04929,10.89555 79.04929,8.09868 Z M80.95066,8.09868 C80.95066,9.95708 81.89793,11.14458 83.34324,11.14458 C84.77195,11.14458 85.72703,9.9395 85.72703,8.09868 C85.72703,6.27348 84.77195,5.06059 83.34324,5.06059 C81.89795,5.06059 80.95066,6.25688 80.95066,8.09868 L80.95066,8.09868 Z" id="Shape"></path>
                <path d="M89.21529,10.0518 C89.21529,8.4688 90.42818,7.51274 92.57955,7.3838 L95.05807,7.2461 L95.05807,6.55762 C95.05807,5.55078 94.39596,4.98242 93.26901,4.98242 C92.4043536,4.86715145 91.5890402,5.41334376 91.36667,6.25683 L89.62839,6.25683 C89.68015,4.62109 91.20261,3.45996 93.3198,3.45996 C95.47996,3.45996 96.90867,4.63867 96.90867,6.41996 L96.90867,12.62505 L95.12742,12.62505 L95.12742,11.13579 L95.08442,11.13579 C94.503393,12.1643086 93.408202,12.7946235 92.227,12.78032 C91.4568141,12.8556746 90.6906084,12.602368 90.1171058,12.0827917 C89.5436033,11.5632154 89.2161099,10.825663 89.21529,10.0518 L89.21529,10.0518 Z M95.05806,9.23442 L95.05806,8.53715 L92.82954,8.67485 C91.71919,8.74419 91.09126,9.22563 91.09126,10.00005 C91.09126,10.79205 91.74556,11.30864 92.7436,11.30864 C93.3274632,11.3482376 93.9025626,11.1502915 94.3383674,10.7597299 C94.7741721,10.3691683 95.0337196,9.81911631 95.0581,9.23442 L95.05806,9.23442 Z" id="Shape"></path>
                <path d="M98.80229,3.57134 L100.57475,3.57134 L100.57475,5.11234 L100.61775,5.11234 C101.133324,4.02560114 102.267506,3.37122136 103.46638,3.46879 C105.46345,3.46879 106.60798,4.75102 106.60798,6.82426 L106.60798,12.62505 L104.74079,12.62505 L104.74079,7.18555 C104.74079,5.82618 104.11188,5.06934 102.80427,5.06934 C102.195842,5.0539833 101.610575,5.3028545 101.199544,5.75171282 C100.788513,6.20057114 100.591996,6.80543073 100.66072,7.41016 L100.66072,12.62505 L98.80229,12.62505 L98.80229,3.57134 Z" id="Path"></path>
            </g>
        </g>
    </g>
</svg>