<?xml version="1.0" encoding="UTF-8"?>
<svg width="135px" height="40px" viewBox="0 0 135 40" version="1.1" xmlns="http://www.w3.org/2000/svg" xmlns:xlink="http://www.w3.org/1999/xlink">
    <title>GetItOnGooglePlay_Badge_Web_color_Turkish</title>
    <defs>
        <polygon id="path-1" points="0 40 135 40 135 0 0 0"></polygon>
    </defs>
    <g id="Page-1" stroke="none" stroke-width="1" fill="none" fill-rule="evenodd">
        <g id="GetItOnGooglePlay_Badge_Web_color_Turkish" transform="translate(0, 0.0003)">
            <g id="g8" transform="translate(67.5, 20) scale(-1, 1) rotate(-180) translate(-67.5, -20)">
                <g id="g12-Clipped">
                    <mask id="mask-2" fill="white">
                        <use xlink:href="#path-1"></use>
                    </mask>
                    <g id="path14"></g>
                    <g id="g12" mask="url(#mask-2)" fill-rule="nonzero">
                        <g id="g18" transform="translate(0, 0.0002)" fill="#000000">
                            <path d="M130,0 L5,0 C2.25,0 0,2.25 0,5 L0,35 C0,37.75 2.25,40 5,40 L130,40 C132.75,40 135,37.75 135,35 L135,5 C135,2.25 132.75,0 130,0" id="path20"></path>
                        </g>
                        <g id="g22" transform="translate(0, 0)" fill="#A6A6A6">
                            <path d="M130,40 L5,40 C2.25,40 3.38357959e-14,37.75 3.38357959e-14,35 L3.38357959e-14,5 C3.38357959e-14,2.25 2.25,0 5,0 L130,0 C132.75,0 135,2.25 135,5 L135,35 C135,37.75 132.75,40 130,40 M130,39.2 C132.316,39.2 134.2,37.316 134.2,35 L134.2,5 C134.2,2.684 132.316,0.8 130,0.8 L5,0.8 C2.684,0.8 0.8,2.684 0.8,5 L0.8,35 C0.8,37.316 2.684,39.2 5,39.2 L130,39.2 Z" id="path24"></path>
                        </g>
                        <path d="M106.936,10 L108.802,10 L108.802,22.501 L106.936,22.501 L106.936,10 Z M123.743,17.998 L121.604,12.578 L121.54,12.578 L119.32,17.998 L117.31,17.998 L120.639,10.423 L118.741,6.209 L120.687,6.209 L125.818,17.998 L123.743,17.998 Z M113.161,11.42 C112.549,11.42 111.697,11.726 111.697,12.482 C111.697,13.447 112.758,13.816 113.675,13.816 C114.495,13.816 114.881,13.639 115.38,13.398 C115.235,12.24 114.238,11.42 113.161,11.42 M113.386,18.271 C112.035,18.271 110.635,17.676 110.056,16.358 L111.713,15.666 C112.067,16.358 112.726,16.583 113.418,16.583 C114.383,16.583 115.364,16.004 115.38,14.975 L115.38,14.846 C115.042,15.039 114.318,15.328 113.434,15.328 C111.649,15.328 109.831,14.347 109.831,12.514 C109.831,10.841 111.295,9.764 112.935,9.764 C114.19,9.764 114.881,10.326 115.316,10.986 L115.38,10.986 L115.38,10.021 L117.181,10.021 L117.181,14.814 C117.181,17.033 115.525,18.271 113.386,18.271 M101.854,16.476 L99.2,16.476 L99.2,20.762 L101.854,20.762 C103.249,20.762 104.041,19.606 104.041,18.619 C104.041,17.65 103.249,16.476 101.854,16.476 M101.806,22.501 L97.335,22.501 L97.335,10 L99.2,10 L99.2,14.736 L101.806,14.736 C103.874,14.736 105.907,16.234 105.907,18.619 C105.907,21.004 103.874,22.501 101.806,22.501 M77.425,11.418 C76.136,11.418 75.057,12.497 75.057,13.979 C75.057,15.477 76.136,16.573 77.425,16.573 C78.698,16.573 79.696,15.477 79.696,13.979 C79.696,12.497 78.698,11.418 77.425,11.418 M79.567,17.298 L79.503,17.298 C79.084,17.797 78.279,18.249 77.264,18.249 C75.137,18.249 73.188,16.38 73.188,13.979 C73.188,11.595 75.137,9.742 77.264,9.742 C78.279,9.742 79.084,10.193 79.503,10.709 L79.567,10.709 L79.567,10.097 C79.567,8.469 78.698,7.6 77.296,7.6 C76.152,7.6 75.443,8.421 75.153,9.114 L73.526,8.437 C73.993,7.309 75.234,5.924 77.296,5.924 C79.487,5.924 81.34,7.213 81.34,10.354 L81.34,17.991 L79.567,17.991 L79.567,17.298 Z M82.628,10 L84.497,10 L84.497,22.502 L82.628,22.502 L82.628,10 Z M87.252,14.124 C87.204,15.768 88.525,16.605 89.475,16.605 C90.217,16.605 90.845,16.235 91.054,15.703 L87.252,14.124 Z M93.052,15.542 C92.697,16.493 91.618,18.249 89.411,18.249 C87.22,18.249 85.4,16.525 85.4,13.995 C85.4,11.611 87.204,9.742 89.62,9.742 C91.57,9.742 92.697,10.934 93.165,11.627 L91.715,12.594 C91.231,11.885 90.571,11.418 89.62,11.418 C88.67,11.418 87.993,11.853 87.558,12.706 L93.245,15.059 L93.052,15.542 Z M47.744,16.943 L47.744,15.139 L52.061,15.139 C51.932,14.124 51.594,13.383 51.079,12.868 C50.45,12.239 49.467,11.547 47.744,11.547 C45.085,11.547 43.007,13.689 43.007,16.348 C43.007,19.006 45.085,21.148 47.744,21.148 C49.178,21.148 50.225,20.585 50.998,19.86 L52.271,21.132 C51.191,22.163 49.758,22.953 47.744,22.953 C44.103,22.953 41.042,19.988 41.042,16.348 C41.042,12.706 44.103,9.742 47.744,9.742 C49.709,9.742 51.191,10.387 52.351,11.595 C53.543,12.787 53.914,14.462 53.914,15.816 C53.914,16.235 53.882,16.621 53.817,16.943 L47.744,16.943 Z M58.822,11.418 C57.534,11.418 56.422,12.481 56.422,13.995 C56.422,15.526 57.534,16.573 58.822,16.573 C60.111,16.573 61.223,15.526 61.223,13.995 C61.223,12.481 60.111,11.418 58.822,11.418 M58.822,18.249 C56.47,18.249 54.553,16.46 54.553,13.995 C54.553,11.547 56.47,9.742 58.822,9.742 C61.174,9.742 63.092,11.547 63.092,13.995 C63.092,16.46 61.174,18.249 58.822,18.249 M68.136,11.418 C66.847,11.418 65.735,12.481 65.735,13.995 C65.735,15.526 66.847,16.573 68.136,16.573 C69.425,16.573 70.536,15.526 70.536,13.995 C70.536,12.481 69.425,11.418 68.136,11.418 M68.136,18.249 C65.784,18.249 63.867,16.46 63.867,13.995 C63.867,11.547 65.784,9.742 68.136,9.742 C70.488,9.742 72.405,11.547 72.405,13.995 C72.405,16.46 70.488,18.249 68.136,18.249" id="path26" fill="#FFFFFF"></path>
                        <g id="g28" transform="translate(10.0702, 7.139)" fill="#EA4335">
                            <path d="M10.647,13.437 L0,2.137 C0.001,2.135 0.001,2.132 0.002,2.13 C0.329,0.903 1.449,0 2.779,0 C3.311,0 3.81,0.144 4.238,0.396 L4.272,0.416 L16.256,7.331 L10.647,13.437 Z" id="path30"></path>
                        </g>
                        <g id="g32" transform="translate(20.4751, 14.4712)" fill="#FBBC04">
                            <path d="M11.013,8.029 L11.003,8.036 L5.829,11.035 L0,5.848 L5.85,0 L10.996,2.969 C11.898,3.457 12.511,4.408 12.511,5.504 C12.511,6.594 11.907,7.54 11.013,8.029" id="path34"></path>
                        </g>
                        <g id="g36" transform="translate(9.972, 9.276)" fill="#4285F4">
                            <path d="M0.098,21.447 C0.034,21.211 -1.38777878e-16,20.963 -1.38777878e-16,20.707 L-1.38777878e-16,0.739 C-1.38777878e-16,0.483 0.034,0.235 0.099,0 L11.111,11.011 L0.098,21.447 Z" id="path38"></path>
                        </g>
                        <g id="g40" transform="translate(10.0698, 19.9991)" fill="#34A853">
                            <path d="M10.726,0 L16.236,5.509 L4.266,12.449 C3.831,12.71 3.323,12.86 2.78,12.86 C1.45,12.86 0.328,11.955 0.001,10.727 C0.001,10.726 0,10.725 0,10.724 L10.726,0 Z" id="path42"></path>
                        </g>
                    </g>
                </g>
                <g id="text46" transform="translate(63.0796, 32.2) scale(-1, 1) rotate(-180) translate(-63.0796, -32.2)translate(41.0796, 24.8667)" fill="#FFFFFF" fill-rule="nonzero" font-family="Helvetica" font-size="8.7" font-weight="normal">
                    <text id="tspan44">
                        <tspan x="0" y="9">İNDİRİN</tspan>
                    </text>
                </g>
            </g>
        </g>
    </g>
</svg>