<?xml version="1.0" encoding="UTF-8"?>
<svg width="136px" height="41px" viewBox="0 0 136 41" version="1.1" xmlns="http://www.w3.org/2000/svg" xmlns:xlink="http://www.w3.org/1999/xlink">
    <title>Group 2</title>
    <g id="Page-1" stroke="none" stroke-width="1" fill="none" fill-rule="evenodd">
        <g id="GetItOnGooglePlay_Badge_Web_color_English" transform="translate(-13, -26)">
            <g id="g8" transform="translate(103.3333, 40) scale(-1, 1) rotate(-180) translate(-103.3333, -40)translate(0, 0)">
                <g id="Group-2" transform="translate(13.3335, 13.3332)">
                    <g id="g32" transform="translate(0, 0.0002)" fill="#000000" fill-rule="nonzero">
                        <path d="M129.99935,0 L4.999975,0 C2.24998875,0 0,2.24998875 0,4.999975 L0,34.999825 C0,37.7498113 2.24998875,39.9998 4.999975,39.9998 L129.99935,39.9998 C132.749336,39.9998 134.999325,37.7498113 134.999325,34.999825 L134.999325,4.999975 C134.999325,2.24998875 132.749336,0 129.99935,0" id="path34"></path>
                    </g>
                    <g id="g36" transform="translate(0, 0)" fill="#A6A6A6" fill-rule="nonzero">
                        <path d="M129.99935,39.9998 L4.999975,39.9998 C2.24998875,39.9998 3.38050939e-14,37.7498113 3.38050939e-14,34.999825 L3.38050939e-14,4.999975 C3.38050939e-14,2.24998875 2.24998875,0 4.999975,0 L129.99935,0 C132.749336,0 134.999325,2.24998875 134.999325,4.999975 L134.999325,34.999825 C134.999325,37.7498113 132.749336,39.9998 129.99935,39.9998 M129.99935,39.199804 C132.315338,39.199804 134.199329,37.3158134 134.199329,34.999825 L134.199329,4.999975 C134.199329,2.68398658 132.315338,0.799996 129.99935,0.799996 L4.999975,0.799996 C2.68398658,0.799996 0.799996,2.68398658 0.799996,4.999975 L0.799996,34.999825 C0.799996,37.3158134 2.68398658,39.199804 4.999975,39.199804 L129.99935,39.199804 Z" id="path38"></path>
                    </g>
                    <g id="g40" transform="translate(41.3522, 26.8658)" fill="#FFFFFF" fill-rule="nonzero">
                        <path d="M6.06596967,2.89098555 C6.06596967,2.05298974 5.81797091,1.38599307 5.3209734,0.88799556 C4.75597622,0.29599852 4.0209799,0 3.11698442,0 C2.24998875,0 1.51399243,0.2999985 0.908995455,0.900995495 C0.30199849,1.5009925 0,2.24598877 0,3.13398433 C0,4.02297989 0.30199849,4.76697617 0.908995455,5.36797316 C1.51399243,5.96797016 2.24998875,6.26896866 3.11698442,6.26896866 C3.54598227,6.26896866 3.95798021,6.18496908 4.34797826,6.01696992 C4.73897631,5.84897076 5.05197474,5.62597187 5.28697357,5.34697327 L4.75897621,4.81897591 C4.36197819,5.29297354 3.81498093,5.53097235 3.11698442,5.53097235 C2.48498758,5.53097235 1.93899031,5.30897346 1.47799261,4.86497568 C1.01699492,4.4199779 0.786996065,3.84398078 0.786996065,3.13398433 C0.786996065,2.42498788 1.01699492,1.84799076 1.47799261,1.40399298 C1.93899031,0.958995205 2.48498758,0.73799631 3.11698442,0.73799631 C3.78698107,0.73799631 4.34497828,0.960995195 4.79297604,1.40799296 C5.08297459,1.69899151 5.24997375,2.10298949 5.29497353,2.62298689 L3.11698442,2.62298689 L3.11698442,3.34398328 L6.02396988,3.34398328 C6.05196974,3.18698407 6.06596967,3.03598482 6.06596967,2.89098555" id="path42"></path>
                    </g>
                    <g id="g44" transform="translate(41.3522, 26.8658)" stroke="#FFFFFF" stroke-width="0.26666666">
                        <path d="M6.06596967,2.89098555 C6.06596967,2.05298974 5.81797091,1.38599307 5.3209734,0.88799556 C4.75597622,0.29599852 4.0209799,0 3.11698442,0 C2.24998875,0 1.51399243,0.2999985 0.908995455,0.900995495 C0.30199849,1.5009925 0,2.24598877 0,3.13398433 C0,4.02297989 0.30199849,4.76697617 0.908995455,5.36797316 C1.51399243,5.96797016 2.24998875,6.26896866 3.11698442,6.26896866 C3.54598227,6.26896866 3.95798021,6.18496908 4.34797826,6.01696992 C4.73897631,5.84897076 5.05197474,5.62597187 5.28697357,5.34697327 L4.75897621,4.81897591 C4.36197819,5.29297354 3.81498093,5.53097235 3.11698442,5.53097235 C2.48498758,5.53097235 1.93899031,5.30897346 1.47799261,4.86497568 C1.01699492,4.4199779 0.786996065,3.84398078 0.786996065,3.13398433 C0.786996065,2.42498788 1.01699492,1.84799076 1.47799261,1.40399298 C1.93899031,0.958995205 2.48498758,0.73799631 3.11698442,0.73799631 C3.78698107,0.73799631 4.34497828,0.960995195 4.79297604,1.40799296 C5.08297459,1.69899151 5.24997375,2.10298949 5.29497353,2.62298689 L3.11698442,2.62298689 L3.11698442,3.34398328 L6.02396988,3.34398328 C6.05196974,3.18698407 6.06596967,3.03598482 6.06596967,2.89098555 Z" id="path46"></path>
                    </g>
                    <g id="g48" transform="translate(48.5245, 26.9997)" fill="#FFFFFF" fill-rule="nonzero">
                        <polygon id="path50" points="3.50298249 5.26297369 0.770996145 5.26297369 0.770996145 3.3609832 3.23498383 3.3609832 3.23498383 2.6399868 0.770996145 2.6399868 0.770996145 0.73799631 3.50298249 0.73799631 3.50298249 0 0 0 0 5.99997 3.50298249 5.99997"></polygon>
                    </g>
                    <g id="g52" transform="translate(48.5245, 26.9997)" stroke="#FFFFFF" stroke-width="0.26666666">
                        <polygon id="path54" points="3.50298249 5.26297369 0.770996145 5.26297369 0.770996145 3.3609832 3.23498383 3.3609832 3.23498383 2.6399868 0.770996145 2.6399868 0.770996145 0.73799631 3.50298249 0.73799631 3.50298249 0 0 0 0 5.99997 3.50298249 5.99997"></polygon>
                    </g>
                    <g id="g56" transform="translate(52.8314, 27)" fill="#FFFFFF" fill-rule="nonzero">
                        <polygon id="path58" points="2.44698777 0 1.67599162 0 1.67599162 5.26297369 0 5.26297369 0 5.99997 4.12297939 5.99997 4.12297939 5.26297369 2.44698777 5.26297369"></polygon>
                    </g>
                    <g id="g60" transform="translate(52.8314, 27)" stroke="#FFFFFF" stroke-width="0.26666666">
                        <polygon id="path62" points="2.44698777 0 1.67599162 0 1.67599162 5.26297369 0 5.26297369 0 5.99997 4.12297939 5.99997 4.12297939 5.26297369 2.44698777 5.26297369"></polygon>
                    </g>
                    <polygon id="path64" stroke="#FFFFFF" stroke-width="0.26666666" fill="#FFFFFF" fill-rule="nonzero" points="59.9376003 32.999935 60.7085965 32.999935 60.7085965 26.999965 59.9376003 26.999965"></polygon>
                    <g id="g66" transform="translate(61.681, 27)" fill="#FFFFFF" fill-rule="nonzero">
                        <polygon id="path68" points="2.44698777 0 1.67599162 0 1.67599162 5.26297369 0 5.26297369 0 5.99997 4.12297939 5.99997 4.12297939 5.26297369 2.44698777 5.26297369"></polygon>
                    </g>
                    <g id="g70" transform="translate(61.681, 27)" stroke="#FFFFFF" stroke-width="0.26666666">
                        <polygon id="path72" points="2.44698777 0 1.67599162 0 1.67599162 5.26297369 0 5.26297369 0 5.99997 4.12297939 5.99997 4.12297939 5.26297369 2.44698777 5.26297369"></polygon>
                    </g>
                    <g id="g74" transform="translate(68.3259, 26.8658)" fill="#FFFFFF" fill-rule="nonzero">
                        <path d="M1.45299274,1.41199294 C1.89699052,0.96199519 2.4399878,0.73799631 3.08298459,0.73799631 C3.72598137,0.73799631 4.26897866,0.96199519 4.71297644,1.41199294 C5.15697422,1.86199069 5.3799731,2.43598782 5.3799731,3.13398433 C5.3799731,3.83198084 5.15697422,4.40697797 4.71297644,4.85597572 C4.26897866,5.30597347 3.72598137,5.53097235 3.08298459,5.53097235 C2.4399878,5.53097235 1.89699052,5.30597347 1.45299274,4.85597572 C1.00999495,4.40697797 0.786996065,3.83198084 0.786996065,3.13398433 C0.786996065,2.43598782 1.00999495,1.86199069 1.45299274,1.41199294 M5.28297359,0.90999545 C4.69297654,0.302998485 3.9599802,0 3.08298459,0 C2.20598897,0 1.47299264,0.302998485 0.88399558,0.90999545 C0.29399853,1.51599242 0,2.25698872 0,3.13398433 C0,4.01097995 0.29399853,4.75297624 0.88399558,5.35897321 C1.47299264,5.96497018 2.20598897,6.26896866 3.08298459,6.26896866 C3.95498023,6.26896866 4.68597657,5.96397018 5.27897361,5.35497323 C5.87097065,4.74597627 6.16696917,4.00597997 6.16696917,3.13398433 C6.16696917,2.25698872 5.87197064,1.51599242 5.28297359,0.90999545" id="path76"></path>
                    </g>
                    <g id="g78" transform="translate(68.3259, 26.8658)" stroke="#FFFFFF" stroke-width="0.26666666">
                        <path d="M1.45299274,1.41199294 C1.89699052,0.96199519 2.4399878,0.73799631 3.08298459,0.73799631 C3.72598137,0.73799631 4.26897866,0.96199519 4.71297644,1.41199294 C5.15697422,1.86199069 5.3799731,2.43598782 5.3799731,3.13398433 C5.3799731,3.83198084 5.15697422,4.40697797 4.71297644,4.85597572 C4.26897866,5.30597347 3.72598137,5.53097235 3.08298459,5.53097235 C2.4399878,5.53097235 1.89699052,5.30597347 1.45299274,4.85597572 C1.00999495,4.40697797 0.786996065,3.83198084 0.786996065,3.13398433 C0.786996065,2.43598782 1.00999495,1.86199069 1.45299274,1.41199294 Z M5.28297359,0.90999545 C4.69297654,0.302998485 3.9599802,0 3.08298459,0 C2.20598897,0 1.47299264,0.302998485 0.88399558,0.90999545 C0.29399853,1.51599242 0,2.25698872 0,3.13398433 C0,4.01097995 0.29399853,4.75297624 0.88399558,5.35897321 C1.47299264,5.96497018 2.20598897,6.26896866 3.08298459,6.26896866 C3.95498023,6.26896866 4.68597657,5.96397018 5.27897361,5.35497323 C5.87097065,4.74597627 6.16696917,4.00597997 6.16696917,3.13398433 C6.16696917,2.25698872 5.87197064,1.51599242 5.28297359,0.90999545 Z" id="path80"></path>
                    </g>
                    <g id="g82" transform="translate(75.5747, 27)" fill="#FFFFFF" fill-rule="nonzero">
                        <polygon id="path84" points="0 0 0 5.99997 0.93799531 5.99997 3.85398073 1.33299334 3.88798056 1.33299334 3.85398073 2.48898756 3.85398073 5.99997 4.62597687 5.99997 4.62597687 0 3.8209809 0 0.76999615 4.89397553 0.736996315 4.89397553 0.76999615 3.73698132 0.76999615 0"></polygon>
                    </g>
                    <g id="g86" transform="translate(75.5747, 27)" stroke="#FFFFFF" stroke-width="0.26666666">
                        <polygon id="path88" points="0 0 0 5.99997 0.93799531 5.99997 3.85398073 1.33299334 3.88798056 1.33299334 3.85398073 2.48898756 3.85398073 5.99997 4.62597687 5.99997 4.62597687 0 3.8209809 0 0.76999615 4.89397553 0.736996315 4.89397553 0.76999615 3.73698132 0.76999615 0"></polygon>
                    </g>
                    <path d="M106.935365,10.00005 L108.801356,10.00005 L108.801356,22.5009875 L106.935365,22.5009875 L106.935365,10.00005 Z M123.742281,17.99801 L121.603292,12.5780371 L121.539292,12.5780371 L119.319303,17.99801 L117.309313,17.99801 L120.638297,10.4230479 L118.741306,6.20906895 L120.686297,6.20906895 L125.817271,17.99801 L123.742281,17.99801 Z M113.160334,11.4200429 C112.548337,11.4200429 111.696342,11.7250414 111.696342,12.4820376 C111.696342,13.4460328 112.757336,13.8160309 113.674332,13.8160309 C114.494328,13.8160309 114.881326,13.6390318 115.379323,13.398033 C115.234324,12.2400388 114.237329,11.4200429 113.160334,11.4200429 M113.385333,18.2710086 C112.03434,18.2710086 110.634347,17.6760116 110.05635,16.3570182 L111.712341,15.6660217 C112.06634,16.3570182 112.725336,16.5830171 113.417333,16.5830171 C114.382328,16.5830171 115.363323,16.00402 115.379323,14.9740251 L115.379323,14.8460258 C115.041325,15.0390248 114.318328,15.3280234 113.433333,15.3280234 C111.648342,15.3280234 109.830351,14.3470283 109.830351,12.5140374 C109.830351,10.8410458 111.294344,9.76305118 112.934335,9.76305118 C114.189329,9.76305118 114.881326,10.3260484 115.315323,10.9860451 L115.379323,10.9860451 L115.379323,10.0210499 L117.180314,10.0210499 L117.180314,14.8140259 C117.180314,17.0330148 115.524322,18.2710086 113.385333,18.2710086 M101.853391,16.4760176 L99.199404,16.4760176 L99.199404,20.7609962 L101.853391,20.7609962 C103.248384,20.7609962 104.04038,19.606002 104.04038,18.6190069 C104.04038,17.6500117 103.248384,16.4760176 101.853391,16.4760176 M101.805391,22.5009875 L97.3344133,22.5009875 L97.3344133,10.00005 L99.199404,10.00005 L99.199404,14.7360263 L101.805391,14.7360263 C103.873381,14.7360263 105.90637,16.2340188 105.90637,18.6190069 C105.90637,21.003995 103.873381,22.5009875 101.805391,22.5009875 M77.4245129,11.4180429 C76.1355193,11.4180429 75.0565247,12.4970375 75.0565247,13.9790301 C75.0565247,15.4770226 76.1355193,16.5730171 77.4245129,16.5730171 C78.6975065,16.5730171 79.6955015,15.4770226 79.6955015,13.9790301 C79.6955015,12.4970375 78.6975065,11.4180429 77.4245129,11.4180429 M79.5675022,17.2980135 L79.5025025,17.2980135 C79.0835046,17.797011 78.2785086,18.2480088 77.2635137,18.2480088 C75.1365243,18.2480088 73.1875341,16.3800181 73.1875341,13.9790301 C73.1875341,11.595042 75.1365243,9.74205129 77.2635137,9.74205129 C78.2785086,9.74205129 79.0835046,10.193049 79.5025025,10.7090465 L79.5675022,10.7090465 L79.5675022,10.0960495 C79.5675022,8.46905765 78.6975065,7.599062 77.2955135,7.599062 C76.1515192,7.599062 75.4425228,8.42105789 75.1525242,9.11405443 L73.5255324,8.43705781 C73.99253,7.30906345 75.2335238,5.92407038 77.2955135,5.92407038 C79.4865026,5.92407038 81.3394933,7.21306393 81.3394933,10.3540482 L81.3394933,17.99101 L79.5675022,17.99101 L79.5675022,17.2980135 Z M82.6284869,10.00005 L84.4974775,10.00005 L84.4974775,22.5019875 L82.6284869,22.5019875 L82.6284869,10.00005 Z M87.2514637,14.1240294 C87.203464,15.7670212 88.5244574,16.605017 89.4744526,16.605017 C90.2164489,16.605017 90.8444458,16.2350188 91.0534447,15.7030215 L87.2514637,14.1240294 Z M93.0514347,15.5420223 C92.6974365,16.4920175 91.6174419,18.2480088 89.4104529,18.2480088 C87.2194639,18.2480088 85.399473,16.5250174 85.399473,13.99503 C85.399473,11.6110419 87.203464,9.74205129 89.6194519,9.74205129 C91.5694422,9.74205129 92.6974365,10.9340453 93.1644342,11.6270419 L91.7144414,12.594037 C91.2314438,11.8850406 90.5704471,11.4180429 89.6194519,11.4180429 C88.6694567,11.4180429 87.99246,11.8530407 87.5574622,12.7060365 L93.2444338,15.0590247 L93.0514347,15.5420223 Z M47.7436613,16.9430153 L47.7436613,15.1390243 L52.0606397,15.1390243 C51.9316403,14.1240294 51.593642,13.3830331 51.0786446,12.8680357 C50.4496478,12.2390388 49.4666527,11.5460423 47.7436613,11.5460423 C45.0846746,11.5460423 43.006685,13.6890316 43.006685,16.3470183 C43.006685,19.006005 45.0846746,21.1479943 47.7436613,21.1479943 C49.1776541,21.1479943 50.2246489,20.5839971 50.997645,19.8590007 L52.2706386,21.1319943 C51.190644,22.1629892 49.7576512,22.9529852 47.7436613,22.9529852 C44.1026795,22.9529852 41.0416948,19.9880001 41.0416948,16.3470183 C41.0416948,12.7060365 44.1026795,9.74205129 47.7436613,9.74205129 C49.7086515,9.74205129 51.190644,10.3870481 52.3506382,11.595042 C53.5436323,12.7870361 53.9136304,14.4620277 53.9136304,15.8160209 C53.9136304,16.2350188 53.8816306,16.6210169 53.8166309,16.9430153 L47.7436613,16.9430153 Z M58.8226059,11.4180429 C57.5336123,11.4180429 56.4216179,12.4810376 56.4216179,13.99503 C56.4216179,15.5260224 57.5336123,16.5730171 58.8226059,16.5730171 C60.1105994,16.5730171 61.2225939,15.5260224 61.2225939,13.99503 C61.2225939,12.4810376 60.1105994,11.4180429 58.8226059,11.4180429 M58.8226059,18.2480088 C56.4696177,18.2480088 54.5526272,16.4600177 54.5526272,13.99503 C54.5526272,11.5460423 56.4696177,9.74205129 58.8226059,9.74205129 C61.1745941,9.74205129 63.0915845,11.5460423 63.0915845,13.99503 C63.0915845,16.4600177 61.1745941,18.2480088 58.8226059,18.2480088 M68.1355593,11.4180429 C66.8465658,11.4180429 65.7345713,12.4810376 65.7345713,13.99503 C65.7345713,15.5260224 66.8465658,16.5730171 68.1355593,16.5730171 C69.4245529,16.5730171 70.5355473,15.5260224 70.5355473,13.99503 C70.5355473,12.4810376 69.4245529,11.4180429 68.1355593,11.4180429 M68.1355593,18.2480088 C65.7835711,18.2480088 63.8665807,16.4600177 63.8665807,13.99503 C63.8665807,11.5460423 65.7835711,9.74205129 68.1355593,9.74205129 C70.4875476,9.74205129 72.404538,11.5460423 72.404538,13.99503 C72.404538,16.4600177 70.4875476,18.2480088 68.1355593,18.2480088" id="path90" fill="#FFFFFF" fill-rule="nonzero"></path>
                    <g id="g92" transform="translate(10.0701, 7.139)" fill="#EA4335" fill-rule="nonzero">
                        <path d="M10.6469468,13.4369328 L0,2.13698932 C0.000999995,2.13498933 0.000999995,2.13198934 0.00199999,2.12998935 C0.328998355,0.902995485 1.44899276,0 2.77898611,0 C3.31098345,0 3.80998095,0.14399928 4.23797881,0.39599802 L4.27197864,0.41599792 L16.2559187,7.33096335 L10.6469468,13.4369328 Z" id="path94"></path>
                    </g>
                    <g id="g96" transform="translate(20.475, 14.4711)" fill="#FBBC04" fill-rule="nonzero">
                        <path d="M11.0129449,8.02895986 L11.002945,8.03595982 L5.82897086,11.0349448 L0,5.84797076 L5.84997075,0 L10.995945,2.96898516 C11.8979405,3.45698272 12.5109374,4.40797796 12.5109374,5.50397248 C12.5109374,6.59396703 11.9069405,7.5399623 11.0129449,8.02895986" id="path98"></path>
                    </g>
                    <g id="g100" transform="translate(9.972, 9.276)" fill="#4285F4" fill-rule="nonzero">
                        <path d="M0.09799951,21.4468928 C0.03399983,21.2108939 -1.38777184e-16,20.9628952 -1.38777184e-16,20.7068965 L-1.38777184e-16,0.738996305 C-1.38777184e-16,0.482997585 0.03399983,0.234998825 0.098999505,0 L11.1109444,11.0109449 L0.09799951,21.4468928 Z" id="path102"></path>
                    </g>
                    <g id="g104" transform="translate(10.0697, 19.9991)" fill="#34A853" fill-rule="nonzero">
                        <path d="M10.7259464,0 L16.2359188,5.50897246 L4.26597867,12.4489378 C3.83098085,12.7099365 3.32298339,12.8599357 2.7799861,12.8599357 C1.44999275,12.8599357 0.32799836,11.9549402 0.000999995,10.7269464 C0.000999995,10.7259464 0,10.7249464 0,10.7239464 L10.7259464,0 Z" id="path106"></path>
                    </g>
                </g>
            </g>
        </g>
    </g>
</svg>